<svg width="30" height="31" viewBox="0 0 30 31" fill="none" xmlns="http://www.w3.org/2000/svg">
<g id="award-svgrepo-com 1">
<path id="Vector" d="M5.32471 14.2749V20.4874C5.32471 22.7624 5.32471 22.7624 7.47471 24.2124L13.3872 27.6249C14.2747 28.1374 15.7247 28.1374 16.6122 27.6249L22.5247 24.2124C24.6747 22.7624 24.6747 22.7624 24.6747 20.4874V14.2749C24.6747 11.9999 24.6747 11.9999 22.5247 10.5499L16.6122 7.13743C15.7247 6.62493 14.2747 6.62493 13.3872 7.13743L7.47471 10.5499C5.32471 11.9999 5.32471 11.9999 5.32471 14.2749Z" stroke="white" stroke-width="2" stroke-linecap="round" stroke-linejoin="round"/>
<path id="Vector_2" d="M21.875 10.0375V6.75C21.875 4.25 20.625 3 18.125 3H11.875C9.375 3 8.125 4.25 8.125 6.75V9.95" stroke="white" stroke-width="2" stroke-linecap="round" stroke-linejoin="round"/>
<path id="Vector_3" d="M15.7872 14.2375L16.4997 15.35C16.6122 15.525 16.8622 15.7 17.0497 15.75L18.3247 16.075C19.1122 16.275 19.3247 16.95 18.8122 17.575L17.9747 18.5875C17.8497 18.75 17.7497 19.0375 17.7622 19.2375L17.8372 20.55C17.8872 21.3625 17.3122 21.775 16.5622 21.475L15.3372 20.9875C15.1497 20.9125 14.8372 20.9125 14.6497 20.9875L13.4248 21.475C12.6748 21.775 12.0997 21.35 12.1497 20.55L12.2247 19.2375C12.2372 19.0375 12.1372 18.7375 12.0122 18.5875L11.1747 17.575C10.6622 16.95 10.8747 16.275 11.6622 16.075L12.9372 15.75C13.1372 15.7 13.3872 15.5125 13.4872 15.35L14.1998 14.2375C14.6498 13.5625 15.3497 13.5625 15.7872 14.2375Z" stroke="white" stroke-width="2" stroke-linecap="round" stroke-linejoin="round"/>
</g>
</svg>
