<svg viewBox="0 0 24 24" fill="none" xmlns="http://www.w3.org/2000/svg">
<path d="M13 21V17C12.7 15.9333 12.1708 15.1458 11.4125 14.6375C10.6542 14.1292 9.825 13.875 8.925 13.875C8.74167 13.875 8.55833 13.8875 8.375 13.9125C8.19167 13.9375 8.00833 13.9667 7.825 14L9.4 15.6L8 17L4 13L8 9L9.4 10.4L7.825 12C7.975 11.9667 8.13333 11.9417 8.3 11.925C8.46667 11.9083 8.64167 11.9 8.825 11.9C9.55833 11.9 10.2917 12.0125 11.025 12.2375C11.7583 12.4625 12.4167 12.8333 13 13.35V6.825L11.4 8.425L10 7L14 3L18 7L16.6 8.4L15 6.825V21H13Z" fill="#C881F0"/>
</svg>
